<svg width="24" height="24" viewBox="0 0 24 24" fill="none" xmlns="http://www.w3.org/2000/svg">
<path d="M21.7941 20.9504L16.9478 16.1041C18.3578 14.4342 19.0681 12.2841 18.9302 10.1029C18.7923 7.92167 17.8169 5.87808 16.2078 4.39904C14.5987 2.92 12.4803 2.11995 10.2952 2.16594C8.11012 2.21193 6.0273 3.10045 4.48185 4.64588C2.93641 6.19132 2.04787 8.27411 2.00188 10.4592C1.95589 12.6443 2.75599 14.7626 4.23504 16.3717C5.71409 17.9808 7.75768 18.9562 9.93892 19.0941C12.1202 19.232 14.2703 18.5217 15.9402 17.1117L20.7765 21.948C20.8414 22.0163 20.9196 22.0706 21.0062 22.1077C21.0928 22.1449 21.186 22.1641 21.2803 22.1641C21.3745 22.1641 21.4677 22.1449 21.5543 22.1077C21.6409 22.0706 21.7191 22.0163 21.784 21.948C21.8514 21.8838 21.9053 21.8068 21.9423 21.7215C21.9794 21.6362 21.999 21.5443 22 21.4513C22.0009 21.3583 21.9832 21.266 21.9478 21.18C21.9125 21.094 21.8602 21.0159 21.7941 20.9504V20.9504ZM3.30551 10.5727C3.30551 9.15588 3.72566 7.7709 4.51281 6.59284C5.29997 5.41478 6.41878 4.49656 7.72777 3.95436C9.03677 3.41216 10.4772 3.27029 11.8668 3.54671C13.2564 3.82312 14.5329 4.5054 15.5347 5.50725C16.5366 6.50911 17.2189 7.78556 17.4953 9.17517C17.7717 10.5648 17.6298 12.0052 17.0876 13.3141C16.5454 14.6231 15.6272 15.7419 14.4492 16.5291C13.2711 17.3162 11.8861 17.7364 10.4692 17.7364C8.5701 17.7337 6.74952 16.9781 5.40665 15.6352C4.06377 14.2924 3.30817 12.4718 3.30551 10.5727Z" fill="black"/>
</svg>
