<svg width="24" height="24" viewBox="0 0 24 24" fill="none" xmlns="http://www.w3.org/2000/svg">
<path d="M6.48868 12.6798C6.62129 12.8124 6.80115 12.8869 6.98868 12.8869C7.17622 12.8869 7.35608 12.8124 7.48868 12.6798C7.62129 12.5472 7.69578 12.3673 7.69578 12.1798C7.69578 11.9923 7.62129 11.8124 7.48868 11.6798L4.39866 8.6098H18.6787C18.8617 8.6098 19.0371 8.53712 19.1665 8.40771C19.2959 8.27831 19.3687 8.1028 19.3687 7.9198C19.3687 7.7368 19.2959 7.56129 19.1665 7.43188C19.0371 7.30248 18.8617 7.2298 18.6787 7.2298H4.37864L7.46866 4.15979C7.53775 4.09611 7.59288 4.0188 7.63059 3.93274C7.66831 3.84668 7.68778 3.75375 7.68778 3.65979C7.68778 3.56583 7.66831 3.4729 7.63059 3.38684C7.59288 3.30078 7.53775 3.22347 7.46866 3.15979C7.40421 3.09202 7.32665 3.03803 7.2407 3.00116C7.15475 2.96429 7.06219 2.94531 6.96866 2.94531C6.87514 2.94531 6.78258 2.96429 6.69663 3.00116C6.61068 3.03803 6.53312 3.09202 6.46866 3.15979L2.17869 7.39978C2.11734 7.46842 2.06674 7.54601 2.02866 7.62982C1.9592 7.79966 1.9592 7.98995 2.02866 8.15979C2.06694 8.24047 2.11757 8.31472 2.17869 8.37982L6.48868 12.6798Z" fill="black"/>
<path d="M21.9969 17.0602C22.0121 16.9742 22.0121 16.8862 21.9969 16.8002C21.9613 16.718 21.9104 16.6434 21.847 16.5801L17.5569 12.3301C17.4913 12.2645 17.4134 12.2124 17.3276 12.1769C17.2418 12.1413 17.1498 12.123 17.0569 12.123C16.9641 12.123 16.8722 12.1413 16.7864 12.1769C16.7006 12.2124 16.6226 12.2645 16.5569 12.3301C16.4913 12.3958 16.4392 12.4738 16.4037 12.5596C16.3682 12.6454 16.3499 12.7373 16.3499 12.8301C16.3499 12.923 16.3682 13.015 16.4037 13.1008C16.4392 13.1866 16.4913 13.2645 16.5569 13.3301L19.647 16.3901H5.80695C5.70868 16.3783 5.60905 16.3875 5.51459 16.4171C5.42012 16.4466 5.33302 16.4958 5.25897 16.5615C5.18493 16.6271 5.12561 16.7078 5.08502 16.7981C5.04443 16.8884 5.02344 16.9862 5.02344 17.0851C5.02344 17.1841 5.04443 17.282 5.08502 17.3723C5.12561 17.4625 5.18493 17.5431 5.25897 17.6088C5.33302 17.6745 5.42012 17.7238 5.51459 17.7533C5.60905 17.7828 5.70868 17.792 5.80695 17.7802H19.587L16.527 20.8502C16.4592 20.9146 16.4052 20.9922 16.3683 21.0781C16.3315 21.1641 16.3125 21.2566 16.3125 21.3502C16.3125 21.4437 16.3315 21.5362 16.3683 21.6222C16.4052 21.7081 16.4592 21.7857 16.527 21.8502C16.5922 21.9167 16.6699 21.9695 16.7558 22.0056C16.8417 22.0417 16.9339 22.0602 17.027 22.0602C17.1201 22.0602 17.2123 22.0417 17.2982 22.0056C17.384 21.9695 17.4618 21.9167 17.527 21.8502L21.817 17.6002C21.8804 17.5369 21.9313 17.4623 21.967 17.3802C21.9997 17.2769 22.0099 17.1678 21.9969 17.0602Z" fill="black"/>
</svg>
