<svg width="24" height="24" viewBox="0 0 24 24" fill="none" xmlns="http://www.w3.org/2000/svg">
<path d="M19.44 19.0001H4.56C3.89333 19.0108 3.24957 18.7569 2.76974 18.2939C2.28992 17.8309 2.01314 17.1967 2 16.5301V6.53011C2.00521 6.19916 2.07555 5.87249 2.20703 5.56874C2.33851 5.26499 2.52854 4.99014 2.76627 4.75984C3.00399 4.52955 3.28476 4.34829 3.59253 4.22652C3.9003 4.10475 4.22906 4.04483 4.56 4.05013H19.44C19.7709 4.04483 20.0997 4.10475 20.4074 4.22652C20.7152 4.34829 20.996 4.52955 21.2337 4.75984C21.4715 4.99014 21.6615 5.26499 21.7929 5.56874C21.9244 5.87249 21.9948 6.19916 22 6.53011V16.5301C21.9948 16.8606 21.9244 17.1868 21.7928 17.49C21.6612 17.7932 21.471 18.0674 21.2331 18.2969C20.9953 18.5264 20.7144 18.7067 20.4067 18.8273C20.099 18.948 19.7704 19.0067 19.44 19.0001ZM4.56 5.35012C4.25671 5.34743 3.96464 5.46465 3.74738 5.67629C3.53012 5.88793 3.40526 6.17686 3.39999 6.48012V16.4801C3.4026 16.6298 3.43468 16.7776 3.49438 16.9149C3.55409 17.0522 3.64027 17.1764 3.74799 17.2804C3.85571 17.3844 3.98287 17.4662 4.12219 17.521C4.26152 17.5759 4.41028 17.6028 4.56 17.6001H19.44C19.5905 17.6041 19.7404 17.5782 19.8809 17.5239C20.0214 17.4697 20.1497 17.3882 20.2585 17.284C20.3672 17.1799 20.4543 17.0552 20.5147 16.9173C20.575 16.7793 20.6074 16.6307 20.61 16.4801V6.48012C20.6074 6.32909 20.5751 6.18005 20.5149 6.04152C20.4547 5.90299 20.3677 5.77768 20.2591 5.67275C20.1504 5.56781 20.0222 5.48531 19.8816 5.42995C19.7411 5.37459 19.591 5.34747 19.44 5.35012H4.56Z" fill="black"/>
<path d="M18.7394 14.4899L14.0394 8.91985C13.9728 8.84005 13.8894 8.77586 13.7952 8.7318C13.7011 8.68775 13.5984 8.66491 13.4944 8.66491C13.3904 8.66491 13.2877 8.68775 13.1935 8.7318C13.0994 8.77586 13.016 8.84005 12.9494 8.91985L11.6194 10.5698L10.0894 8.88982C10.0166 8.80985 9.92654 8.74755 9.82602 8.70769C9.7255 8.66783 9.61721 8.65148 9.5094 8.65984C9.40126 8.66966 9.29669 8.70348 9.20328 8.75884C9.10986 8.8142 9.02996 8.88971 8.96942 8.97985L5.36942 14.5499C5.30786 14.6544 5.27539 14.7735 5.27539 14.8948C5.27539 15.0162 5.30786 15.1353 5.36942 15.2399C5.43389 15.3436 5.52372 15.4293 5.63043 15.4888C5.73715 15.5482 5.85723 15.5796 5.9794 15.5798H18.2194C18.3494 15.5812 18.4771 15.5464 18.5884 15.4793C18.6996 15.4122 18.79 15.3154 18.8494 15.1998C18.9042 15.0841 18.9231 14.9545 18.9034 14.8279C18.8838 14.7014 18.8267 14.5836 18.7394 14.4899ZM7.21942 14.2399L9.65942 10.4698L13.1094 14.2399H7.21942ZM14.9694 14.2399L12.5594 11.6498L13.5594 10.4698L16.7794 14.2798L14.9694 14.2399Z" fill="black"/>
</svg>
