<svg width="24" height="24" viewBox="0 0 24 24" fill="none" xmlns="http://www.w3.org/2000/svg">
<path d="M19.7739 13.8144C19.8507 13.4855 19.9075 13.1523 19.9439 12.8165C19.9439 12.4972 19.9439 12.1679 19.9439 11.8187L20.5839 11.4395C20.9762 11.2092 21.2702 10.8433 21.4102 10.4111C21.5503 9.97898 21.5267 9.5106 21.3439 9.09466L20.3439 6.78969C20.1683 6.37691 19.8435 6.04511 19.4341 5.86025C19.0247 5.67539 18.5605 5.651 18.1339 5.79186L17.4339 6.03133C16.9571 5.58347 16.4303 5.19171 15.8639 4.86383V4.10553C15.8744 3.65297 15.7151 3.21276 15.4173 2.87128C15.1195 2.5298 14.7046 2.31163 14.2539 2.25952L11.8039 1.99015C11.3474 1.93398 10.8866 2.0533 10.5152 2.32389C10.1437 2.59448 9.88938 2.996 9.8039 3.44693L9.65389 4.1953C9.02903 4.38498 8.4309 4.65321 7.8739 4.99355L7.2339 4.60445C6.8475 4.37483 6.38833 4.29968 5.94866 4.39409C5.509 4.48849 5.12144 4.7454 4.8639 5.11329L3.4139 7.10894C3.15231 7.48024 3.03449 7.93361 3.0823 8.38496C3.13011 8.83632 3.3403 9.25507 3.6739 9.56361L4.2239 10.0725C4.15199 10.4019 4.09857 10.735 4.0639 11.0703C4.03876 11.4025 4.03876 11.736 4.0639 12.0682L3.4139 12.4473C3.02324 12.6792 2.73061 13.0452 2.59074 13.4768C2.45086 13.9083 2.47331 14.376 2.65389 14.7922L3.65389 17.0972C3.83133 17.5084 4.15632 17.8388 4.56515 18.0234C4.97398 18.208 5.43717 18.2335 5.8639 18.095L6.57389 17.8555C7.04645 18.3056 7.57394 18.6945 8.1439 19.0131V19.8612C8.13818 20.3141 8.30043 20.7531 8.59947 21.0938C8.89851 21.4346 9.31323 21.653 9.7639 21.7071L12.2139 21.9766H12.4539C12.8719 21.9725 13.2756 21.8241 13.5964 21.5568C13.9172 21.2894 14.1354 20.9195 14.2139 20.5098L14.3639 19.7614C14.9895 19.5736 15.5878 19.3052 16.1439 18.9631L16.7839 19.3423C17.1685 19.5753 17.6276 19.6534 18.0678 19.5607C18.5081 19.468 18.8964 19.2115 19.1539 18.8434L20.6039 16.8477C20.8695 16.4768 20.9906 16.022 20.9446 15.5684C20.8986 15.1148 20.6886 14.6935 20.3539 14.3831L19.7739 13.8144ZM19.4539 15.9696L18.0039 17.9653C17.941 18.0556 17.8458 18.1184 17.7378 18.1407C17.6299 18.163 17.5175 18.143 17.4239 18.085L16.4239 17.4863C16.3152 17.4159 16.1885 17.3784 16.0589 17.3784C15.9293 17.3784 15.8026 17.4159 15.6939 17.4863C15.0517 17.941 14.334 18.2788 13.5739 18.4842C13.4489 18.5159 13.3355 18.5825 13.2469 18.6761C13.1584 18.7698 13.0984 18.8867 13.0739 19.0131L12.8339 20.1705C12.8166 20.281 12.7567 20.3803 12.6671 20.4474C12.5774 20.5145 12.465 20.544 12.3539 20.5297L9.90389 20.2703C9.79257 20.2556 9.69045 20.201 9.61677 20.1164C9.54309 20.0319 9.50294 19.9233 9.5039 19.8113V18.6239C9.50415 18.4945 9.46886 18.3675 9.40187 18.2566C9.33487 18.1458 9.23874 18.0554 9.1239 17.9952C8.4171 17.6479 7.77994 17.1744 7.24389 16.5983C7.18093 16.5317 7.10497 16.4788 7.02069 16.4428C6.9364 16.4067 6.8456 16.3884 6.7539 16.3888C6.68424 16.3791 6.61356 16.3791 6.54389 16.3888L5.4539 16.8677C5.34887 16.9046 5.2337 16.9004 5.13163 16.856C5.02956 16.8116 4.94818 16.7302 4.90389 16.6282L3.90389 14.3233C3.85919 14.2203 3.85384 14.1046 3.88885 13.9979C3.92386 13.8913 3.9968 13.8011 4.0939 13.7445L5.0939 13.1558C5.20595 13.0905 5.29729 12.995 5.35743 12.8803C5.41757 12.7656 5.44407 12.6363 5.43389 12.5072C5.39848 12.1089 5.39848 11.7082 5.43389 11.3098C5.47563 10.9146 5.55262 10.5239 5.6639 10.1424C5.69769 10.0173 5.69693 9.88535 5.66172 9.76063C5.62651 9.63591 5.55816 9.523 5.46389 9.43389L4.5939 8.64563C4.51257 8.56812 4.46179 8.46406 4.45078 8.35238C4.43978 8.2407 4.46926 8.1288 4.5339 8.03697L5.9839 6.04132C6.04999 5.95228 6.14612 5.89006 6.25456 5.86622C6.363 5.84238 6.47642 5.85852 6.57389 5.91159L7.57389 6.51027C7.68055 6.58106 7.80579 6.61885 7.93389 6.61885C8.06199 6.61885 8.18724 6.58106 8.29389 6.51027C8.93378 6.05163 9.65225 5.71348 10.4139 5.51244C10.5401 5.48299 10.6547 5.41714 10.7437 5.32309C10.8326 5.22905 10.8918 5.11101 10.9139 4.98362L11.1539 3.81612C11.1757 3.70595 11.2382 3.60795 11.3289 3.54145C11.4196 3.47496 11.532 3.4448 11.6439 3.45692L14.0839 3.72635C14.1961 3.73883 14.2996 3.79291 14.3737 3.87794C14.4477 3.96297 14.4871 4.07268 14.4839 4.18531V5.37273C14.4801 5.50284 14.514 5.63131 14.5813 5.74277C14.6487 5.85423 14.7468 5.94399 14.8639 6.00136C15.5667 6.3462 16.2004 6.81626 16.7339 7.38836C16.822 7.48383 16.9361 7.55166 17.0621 7.58355C17.1882 7.61544 17.3209 7.61002 17.4439 7.56796L18.5339 7.19877C18.6403 7.16485 18.7555 7.17161 18.8571 7.21771C18.9587 7.26381 19.0396 7.34597 19.0839 7.44822L20.0839 9.7532C20.1264 9.85644 20.1307 9.97142 20.0958 10.0775C20.061 10.1836 19.9894 10.2738 19.8939 10.332L18.8939 10.9206C18.7826 10.9868 18.692 11.0824 18.6319 11.197C18.5719 11.3115 18.5449 11.4403 18.5539 11.5692C18.5892 11.9676 18.5892 12.3683 18.5539 12.7667C18.5072 13.1578 18.4303 13.5448 18.3239 13.9241C18.2846 14.0504 18.2825 14.1853 18.318 14.3127C18.3535 14.4401 18.4249 14.5546 18.5239 14.6426L19.3839 15.4308C19.4515 15.5015 19.4948 15.5919 19.5074 15.6888C19.52 15.7857 19.5012 15.8841 19.4539 15.9696Z" fill="black"/>
<path d="M12.7323 7.59753C12.1619 7.50696 11.5791 7.53034 11.0178 7.66641C10.4565 7.80248 9.92793 8.04853 9.46273 8.39017C8.99753 8.73181 8.60501 9.16228 8.30795 9.65658C8.01089 10.1509 7.81522 10.6991 7.73231 11.2695C7.54039 12.4172 7.80968 13.594 8.48174 14.5448C9.15381 15.4956 10.1745 16.1437 11.3223 16.3484C11.5501 16.3882 11.781 16.4083 12.0123 16.4083C13.0533 16.3937 14.0553 16.0104 14.8393 15.3268C15.6233 14.6433 16.1383 13.7039 16.2923 12.6764C16.4796 11.5338 16.2123 10.3634 15.5473 9.41467C14.8823 8.46592 13.8722 7.8139 12.7323 7.59753ZM14.9823 12.4569C14.9249 12.8472 14.7907 13.2223 14.5875 13.5607C14.3843 13.899 14.1161 14.194 13.7983 14.4286C13.4805 14.6632 13.1193 14.8328 12.7356 14.9277C12.3519 15.0226 11.9531 15.0408 11.5623 14.9814C11.1695 14.9164 10.7936 14.774 10.4564 14.5625C10.1193 14.351 9.82781 14.0747 9.59884 13.7496C9.36987 13.4246 9.20803 13.0572 9.12278 12.6691C9.03753 12.281 9.03057 11.8798 9.1023 11.489C9.20709 10.7836 9.56084 10.1386 10.0998 9.67034C10.6388 9.20204 11.3276 8.94114 12.0423 8.93458C12.1986 8.9202 12.356 8.9202 12.5123 8.93458C12.9091 8.99817 13.289 9.14068 13.6295 9.35359C13.97 9.5665 14.2642 9.84547 14.4946 10.174C14.725 10.5025 14.8869 10.8739 14.9706 11.266C15.0544 11.6582 15.0584 12.0632 14.9823 12.4569Z" fill="black"/>
</svg>
