<svg width="24" height="24" viewBox="0 0 24 24" fill="none" xmlns="http://www.w3.org/2000/svg">
<path d="M17.4547 7.67918H16.3169V6.52712C16.345 5.94304 16.2537 5.35935 16.0485 4.8114C15.8433 4.26346 15.5284 3.7627 15.1229 3.33942C14.7174 2.91614 14.2298 2.57914 13.6895 2.3489C13.1493 2.11867 12.5677 2 11.98 2C11.3923 2 10.8108 2.11867 10.2706 2.3489C9.73033 2.57914 9.24265 2.91614 8.83716 3.33942C8.43168 3.7627 8.11683 4.26346 7.9116 4.8114C7.70636 5.35935 7.61501 5.94304 7.64318 6.52712V7.67918H6.50537C5.83472 7.68704 5.19453 7.95897 4.72497 8.43548C4.25542 8.91199 3.99475 9.55425 4.00008 10.2216V19.4576C3.99475 20.1249 4.25542 20.7671 4.72497 21.2436C5.19453 21.7202 5.83472 21.9921 6.50537 22H17.4847C17.8176 21.9974 18.1467 21.9296 18.4533 21.8004C18.7599 21.6712 19.038 21.4832 19.2716 21.2472C19.5051 21.0111 19.6896 20.7315 19.8146 20.4245C19.9396 20.1174 20.0026 19.7889 19.9999 19.4576V10.2216C20.0026 9.8878 19.9386 9.55678 19.8118 9.24779C19.6849 8.93879 19.4977 8.65796 19.261 8.42148C19.0242 8.185 18.7427 7.9976 18.4326 7.87018C18.1226 7.74276 17.7902 7.67786 17.4547 7.67918ZM9.01066 6.52712C9.01066 5.73695 9.32612 4.97911 9.88767 4.42037C10.4492 3.86163 11.2109 3.54775 12.005 3.54775C12.7992 3.54775 13.5608 3.86163 14.1223 4.42037C14.6839 4.97911 14.9994 5.73695 14.9994 6.52712V7.67918H9.01066V6.52712Z" fill="#49516A"/>
</svg>
