<svg width="24" height="24" viewBox="0 0 24 24" fill="none" xmlns="http://www.w3.org/2000/svg">
<path d="M21.2565 4.70996H3.61652C3.44655 4.73039 3.28993 4.81236 3.17633 4.94043C3.06273 5.0685 3 5.23372 3 5.40491C3 5.5761 3.06273 5.74138 3.17633 5.86945C3.28993 5.99751 3.44655 6.07949 3.61652 6.09991H5.30652L6.30652 20.3099C6.2782 20.7191 6.40906 21.1234 6.67181 21.4384C6.93457 21.7533 7.30887 21.9545 7.71649 21.9999H17.1765C17.5805 21.9546 17.9517 21.7562 18.2139 21.4456C18.4762 21.135 18.6095 20.7358 18.5865 20.33L19.5365 6.05994H21.2265C21.3965 6.03951 21.553 5.95753 21.6666 5.82947C21.7802 5.7014 21.843 5.53612 21.843 5.36493C21.843 5.19374 21.7802 5.02852 21.6666 4.90045C21.553 4.77239 21.3965 4.69035 21.2265 4.66992L21.2565 4.70996ZM17.2565 20.2399C17.2565 20.4699 17.1665 20.5999 17.2565 20.6099H7.86652C7.77936 20.495 7.73354 20.3541 7.73651 20.21L6.73651 6.07996H18.2665L17.2565 20.2399Z" fill="black"/>
<path d="M8.95587 3.40002H15.9559C16.1415 3.40002 16.3196 3.32622 16.4509 3.19495C16.5821 3.06367 16.6559 2.88566 16.6559 2.70001C16.6559 2.51436 16.5821 2.33629 16.4509 2.20502C16.3196 2.07374 16.1415 2 15.9559 2H8.95587C8.77022 2 8.59221 2.07374 8.46094 2.20502C8.32966 2.33629 8.25586 2.51436 8.25586 2.70001C8.25586 2.88566 8.32966 3.06367 8.46094 3.19495C8.59221 3.32622 8.77022 3.40002 8.95587 3.40002Z" fill="black"/>
<path d="M9.62566 18.3399C9.71627 18.3386 9.80569 18.3195 9.8889 18.2836C9.97212 18.2477 10.0475 18.1957 10.1106 18.1307C10.1738 18.0657 10.2235 17.9889 10.2569 17.9047C10.2904 17.8205 10.307 17.7305 10.3057 17.6399V9.05988C10.3057 8.87953 10.234 8.70657 10.1065 8.57904C9.97897 8.45152 9.806 8.37988 9.62566 8.37988C9.44531 8.37988 9.27235 8.45152 9.14482 8.57904C9.0173 8.70657 8.9456 8.87953 8.9456 9.05988V17.6299C8.94294 17.7213 8.95852 17.8124 8.99138 17.8978C9.02424 17.9831 9.07373 18.0611 9.13701 18.1272C9.20029 18.1933 9.27609 18.2461 9.35997 18.2826C9.44385 18.3191 9.53418 18.3386 9.62566 18.3399Z" fill="black"/>
<path d="M12.4362 18.3399C12.5268 18.3386 12.6163 18.3195 12.6995 18.2836C12.7827 18.2477 12.858 18.1957 12.9212 18.1307C12.9843 18.0657 13.034 17.9889 13.0675 17.9047C13.101 17.8205 13.1175 17.7305 13.1162 17.6399V9.05988C13.1162 8.87953 13.0446 8.70657 12.917 8.57904C12.7895 8.45152 12.6166 8.37988 12.4362 8.37988C12.2559 8.37988 12.0829 8.45152 11.9554 8.57904C11.8278 8.70657 11.7562 8.87953 11.7562 9.05988V17.6299C11.7535 17.7213 11.7691 17.8124 11.8019 17.8978C11.8348 17.9831 11.8843 18.0611 11.9476 18.1272C12.0108 18.1933 12.0866 18.2461 12.1705 18.2826C12.2544 18.3191 12.3447 18.3386 12.4362 18.3399Z" fill="black"/>
<path d="M15.2252 18.3399C15.3158 18.3386 15.4053 18.3195 15.4885 18.2836C15.5717 18.2477 15.647 18.1957 15.7102 18.1307C15.7733 18.0657 15.8231 17.9889 15.8566 17.9047C15.89 17.8205 15.9065 17.7305 15.9052 17.6399V9.05988C15.9052 8.87953 15.8336 8.70657 15.706 8.57904C15.5785 8.45152 15.4056 8.37988 15.2252 8.37988C15.0449 8.37988 14.8719 8.45152 14.7444 8.57904C14.6168 8.70657 14.5452 8.87953 14.5452 9.05988V17.6299C14.5426 17.7213 14.5581 17.8124 14.5909 17.8978C14.6238 17.9831 14.6733 18.0611 14.7366 18.1272C14.7999 18.1933 14.8756 18.2461 14.9595 18.2826C15.0434 18.3191 15.1337 18.3386 15.2252 18.3399Z" fill="black"/>
</svg>
