<svg width="24" height="24" viewBox="0 0 24 24" fill="none" xmlns="http://www.w3.org/2000/svg">
<path d="M13.1592 12L20.76 4.39917C20.9137 4.24546 21 4.037 21 3.81962C21 3.60225 20.9137 3.39379 20.76 3.24008C20.6063 3.08637 20.3978 3 20.1804 3C19.963 3 19.7545 3.08637 19.6008 3.24008L12 10.8409L4.39918 3.24008C4.24547 3.08637 4.037 3 3.81963 3C3.60225 3 3.39379 3.08637 3.24008 3.24008C3.08637 3.39379 3 3.60225 3 3.81962C3 4.037 3.08637 4.24546 3.24008 4.39917L10.8409 12L3.24008 19.6008C3.08637 19.7545 3 19.963 3 20.1804C3 20.3978 3.08637 20.6062 3.24008 20.7599C3.39379 20.9136 3.60225 21 3.81963 21C4.037 21 4.24547 20.9136 4.39918 20.7599L12 13.1591L19.6008 20.7599C19.7545 20.9136 19.963 21 20.1804 21C20.3978 21 20.6063 20.9136 20.76 20.7599C20.9137 20.6062 21 20.3978 21 20.1804C21 19.963 20.9137 19.7545 20.76 19.6008L13.1592 12Z" fill="black"/>
</svg>
