<svg width="24" height="24" viewBox="0 0 24 24" fill="none" xmlns="http://www.w3.org/2000/svg">
<g clip-path="url(#clip0_1151_6708)">
<path d="M21.2995 11.8203H4.37952L10.2395 6.15027C10.31 6.08742 10.3664 6.01036 10.405 5.92419C10.4436 5.83803 10.4635 5.74469 10.4635 5.65027C10.4635 5.55585 10.4436 5.46245 10.405 5.37628C10.3664 5.29011 10.31 5.21312 10.2395 5.15027C10.1041 5.023 9.92531 4.95215 9.7395 4.95215C9.5537 4.95215 9.37488 5.023 9.2395 5.15027L2.2395 11.9802C2.16976 12.0379 2.11779 12.1142 2.08954 12.2003C2.04994 12.2794 2.0293 12.3667 2.0293 12.4553C2.0293 12.5438 2.04994 12.6311 2.08954 12.7103C2.11779 12.7963 2.16976 12.8725 2.2395 12.9302L9.2395 19.7603C9.37096 19.8876 9.54649 19.9592 9.72949 19.9603C9.91536 19.9588 10.0939 19.8874 10.2295 19.7603C10.3 19.6974 10.3564 19.6203 10.395 19.5342C10.4336 19.448 10.4536 19.3547 10.4536 19.2603C10.4536 19.1658 10.4336 19.0724 10.395 18.9863C10.3564 18.9001 10.3 18.8231 10.2295 18.7603L4.36951 13.0903H21.2895C21.385 13.1019 21.482 13.0931 21.5739 13.0645C21.6658 13.0359 21.7506 12.9881 21.8226 12.9243C21.8947 12.8605 21.9524 12.7822 21.9919 12.6944C22.0314 12.6066 22.0518 12.5115 22.0518 12.4152C22.0518 12.319 22.0314 12.2239 21.9919 12.1361C21.9524 12.0483 21.8947 11.9699 21.8226 11.9061C21.7506 11.8423 21.6658 11.7945 21.5739 11.7659C21.482 11.7373 21.385 11.7286 21.2895 11.7402L21.2995 11.8203Z" fill="black"/>
</g>
<defs>
<clipPath id="clip0_1151_6708">
<rect width="20" height="15" fill="white" transform="translate(2 5)"/>
</clipPath>
</defs>
</svg>
