<svg width="96" height="164" viewBox="0 0 96 164" fill="none" xmlns="http://www.w3.org/2000/svg">
<path d="M78.4259 66.8779L78.9569 66.3483L78.4259 66.8779ZM90.9026 164L95.9506 156.963L87.3325 156.11L90.9026 164ZM0 1.75C17.3978 1.75 30.4871 6.88403 40.0761 14.5025C49.6737 22.1278 55.8051 32.2748 59.2198 42.3529C62.6371 52.4391 63.3173 62.4093 62.06 69.6391C61.4302 73.2608 60.3252 76.1314 58.8936 77.9896C57.4805 79.8238 55.8003 80.6237 53.9053 80.3175L53.666 81.7983C56.2406 82.2143 58.4262 81.0541 60.0819 78.9051C61.7191 76.78 62.886 73.6444 63.5378 69.8961C64.8439 62.3859 64.1267 52.161 60.6404 41.8716C57.1515 31.5741 50.8732 21.165 41.0092 13.3281C31.1367 5.48431 17.7127 0.25 0 0.25V1.75ZM53.9053 80.3175C51.7983 79.977 50.3076 79.1862 49.3104 78.1552C48.3138 77.1248 47.7619 75.8047 47.6166 74.3189C47.3236 71.321 48.7002 67.6859 51.3604 64.7725C54.0062 61.8746 57.8554 59.7674 62.3966 59.7422C66.9302 59.7172 72.2697 61.7674 77.8949 67.4076L78.9569 66.3483C73.1222 60.498 67.417 58.2144 62.3883 58.2423C57.3672 58.27 53.1366 60.6024 50.2526 63.7611C47.3829 66.9041 45.7795 70.9424 46.1237 74.4648C46.2972 76.2391 46.9681 77.891 48.2322 79.198C49.4957 80.5044 51.3034 81.4165 53.666 81.7983L53.9053 80.3175ZM77.8949 67.4076C88.0434 77.5832 91.9504 93.8483 92.9628 110.763C93.9734 127.65 92.0915 145.002 90.8213 157.209L92.3133 157.364C93.5812 145.178 95.4793 127.704 94.4601 110.674C93.4426 93.672 89.5098 76.9293 78.9569 66.3483L77.8949 67.4076Z" fill="#3F3F43"/>
</svg>
