<svg width="24" height="24" viewBox="0 0 24 24" fill="none" xmlns="http://www.w3.org/2000/svg">
<path d="M18.3501 8.83008H14.7401C14.5701 8.8505 14.4136 8.93248 14.3 9.06055C14.1864 9.18861 14.1236 9.3539 14.1236 9.52509C14.1236 9.69627 14.1864 9.86156 14.3 9.98962C14.4136 10.1177 14.5701 10.1997 14.7401 10.2201H18.3501C18.4244 10.2201 18.4956 10.2496 18.5481 10.3021C18.6006 10.3546 18.6301 10.4258 18.6301 10.5001V20.3201C18.6315 20.3572 18.6252 20.3943 18.6117 20.4289C18.5981 20.4635 18.5775 20.4949 18.5512 20.5212C18.525 20.5475 18.4935 20.568 18.4589 20.5816C18.4243 20.5952 18.3873 20.6015 18.3501 20.6001H5.64014C5.60382 20.6001 5.56785 20.5928 5.53442 20.5786C5.501 20.5644 5.47079 20.5437 5.44559 20.5175C5.42038 20.4914 5.40069 20.4604 5.38773 20.4265C5.37476 20.3926 5.36877 20.3564 5.37012 20.3201V10.5001C5.37007 10.4275 5.39821 10.3578 5.44858 10.3055C5.49894 10.2533 5.56762 10.2227 5.64014 10.2201H9.12012C9.29008 10.1997 9.44667 10.1177 9.56027 9.98962C9.67387 9.86156 9.7366 9.69627 9.7366 9.52509C9.7366 9.3539 9.67387 9.18861 9.56027 9.06055C9.44667 8.93248 9.29008 8.8505 9.12012 8.83008H5.64014C5.20162 8.83535 4.78299 9.01394 4.47571 9.32684C4.16843 9.63974 3.99745 10.0615 4.00012 10.5001V20.3201C3.99748 20.5381 4.03781 20.7545 4.1188 20.9569C4.1998 21.1593 4.31985 21.3438 4.47214 21.4998C4.62443 21.6558 4.80598 21.7802 5.00638 21.8661C5.20678 21.9519 5.42214 21.9975 5.64014 22.0001H18.3501C18.569 21.9988 18.7854 21.9542 18.9869 21.869C19.1885 21.7837 19.3712 21.6594 19.5246 21.5033C19.6779 21.3472 19.7989 21.1622 19.8805 20.9592C19.9621 20.7561 20.0028 20.5389 20.0001 20.3201V10.5001C20.0014 10.2821 19.9598 10.066 19.8776 9.86407C19.7954 9.66217 19.6742 9.47844 19.521 9.32336C19.3678 9.16829 19.1855 9.0449 18.9846 8.96027C18.7837 8.87563 18.5681 8.83139 18.3501 8.83008Z" fill="black"/>
<path d="M8.63055 7.11011L11.3105 4.38007V15.7301C11.3105 15.914 11.3829 16.0906 11.512 16.2216C11.6411 16.3525 11.8166 16.4275 12.0005 16.4301C12.0912 16.4288 12.1806 16.4097 12.2639 16.3738C12.3471 16.3379 12.4224 16.286 12.4855 16.2209C12.5487 16.1559 12.5984 16.0792 12.6319 15.9949C12.6653 15.9107 12.6819 15.8207 12.6805 15.7301V4.38007L15.3605 7.11011C15.4243 7.17497 15.5007 7.22611 15.585 7.2605C15.6692 7.29488 15.7596 7.31174 15.8506 7.31006C15.94 7.31155 16.0288 7.29461 16.1114 7.26019C16.194 7.22578 16.2686 7.17469 16.3305 7.11011C16.4624 6.97713 16.5365 6.79741 16.5365 6.61011C16.5365 6.4228 16.4624 6.24309 16.3305 6.11011L12.5005 2.20007C12.4354 2.13895 12.3612 2.08839 12.2805 2.05011C12.1982 2.01546 12.1098 1.99756 12.0205 1.99756C11.9312 1.99756 11.8429 2.01546 11.7606 2.05011C11.6767 2.08819 11.5992 2.13873 11.5305 2.20007L7.68054 6.12006C7.55328 6.25544 7.48242 6.43425 7.48242 6.62006C7.48242 6.80586 7.55328 6.98468 7.68054 7.12006C7.80886 7.24272 7.98008 7.3104 8.15759 7.30853C8.3351 7.30666 8.50484 7.23545 8.63055 7.11011Z" fill="black"/>
</svg>
