<svg width="24" height="24" viewBox="0 0 24 24" fill="none" xmlns="http://www.w3.org/2000/svg">
<path d="M9.09 2H4C2.89543 2 2 2.89543 2 4V9.09C2 10.1946 2.89543 11.09 4 11.09H9.09C10.1946 11.09 11.09 10.1946 11.09 9.09V4C11.09 2.89543 10.1946 2 9.09 2Z" fill="black"/>
<path d="M20.0002 2H14.9102C13.8056 2 12.9102 2.89543 12.9102 4V9.09C12.9102 10.1946 13.8056 11.09 14.9102 11.09H20.0002C21.1047 11.09 22.0002 10.1946 22.0002 9.09V4C22.0002 2.89543 21.1047 2 20.0002 2Z" fill="black"/>
<path d="M20.0002 12.9102H14.9102C13.8056 12.9102 12.9102 13.8056 12.9102 14.9102V20.0002C12.9102 21.1047 13.8056 22.0002 14.9102 22.0002H20.0002C21.1047 22.0002 22.0002 21.1047 22.0002 20.0002V14.9102C22.0002 13.8056 21.1047 12.9102 20.0002 12.9102Z" fill="black"/>
<path d="M9.09 12.9102H4C2.89543 12.9102 2 13.8056 2 14.9102V20.0002C2 21.1047 2.89543 22.0002 4 22.0002H9.09C10.1946 22.0002 11.09 21.1047 11.09 20.0002V14.9102C11.09 13.8056 10.1946 12.9102 9.09 12.9102Z" fill="black"/>
</svg>
