<svg width="24" height="24" viewBox="0 0 24 24" fill="none" xmlns="http://www.w3.org/2000/svg">
<path d="M20.8656 3.00001H3.11562C2.90498 3.00081 2.69888 3.06026 2.5209 3.17152C2.34292 3.28279 2.20037 3.44136 2.10952 3.62903C2.01867 3.81671 1.98326 4.02587 2.00735 4.23252C2.03144 4.43917 2.11398 4.63494 2.24563 4.79732L8.42568 12.3321V20.894C8.42735 21.0675 8.47 21.2383 8.5502 21.3927C8.63039 21.5471 8.74586 21.6809 8.8876 21.7835C9.02933 21.8861 9.19335 21.9546 9.3666 21.9836C9.53985 22.0126 9.71758 22.0013 9.88564 21.9506L14.7757 19.8768C15.0052 19.8053 15.2056 19.6633 15.3477 19.4715C15.4898 19.2796 15.5662 19.048 15.5657 18.8103V12.3321L21.7456 4.79732C21.8778 4.63428 21.9606 4.43761 21.9843 4.23007C22.008 4.02253 21.9717 3.8126 21.8797 3.62457C21.7876 3.43654 21.6436 3.2781 21.4641 3.16758C21.2847 3.05705 21.0771 2.99895 20.8656 3.00001Z" fill="black"/>
</svg>
