<svg width="24" height="24" viewBox="0 0 24 24" fill="none" xmlns="http://www.w3.org/2000/svg">
<path d="M17.5502 3.77295H16.5502V2.77295C16.5619 2.67605 16.5529 2.57774 16.5239 2.48456C16.4948 2.39137 16.4463 2.30541 16.3816 2.23236C16.3168 2.15931 16.2373 2.10084 16.1483 2.06079C16.0593 2.02074 15.9628 2 15.8652 2C15.7676 2 15.6711 2.02074 15.5821 2.06079C15.4931 2.10084 15.4136 2.15931 15.3488 2.23236C15.2841 2.30541 15.2355 2.39137 15.2065 2.48456C15.1774 2.57774 15.1684 2.67605 15.1802 2.77295V3.77295H12.1802V2.77295C12.1802 2.5926 12.1085 2.41964 11.981 2.29211C11.8535 2.16459 11.6805 2.09296 11.5002 2.09296C11.3198 2.09296 11.1469 2.16459 11.0193 2.29211C10.8918 2.41964 10.8202 2.5926 10.8202 2.77295V3.77295H7.82019V2.77295C7.83192 2.67605 7.82295 2.57774 7.79388 2.48456C7.76482 2.39137 7.71629 2.30541 7.65155 2.23236C7.58681 2.15931 7.50735 2.10084 7.41833 2.06079C7.32932 2.02074 7.2328 2 7.13519 2C7.03758 2 6.94106 2.02074 6.85205 2.06079C6.76303 2.10084 6.68351 2.15931 6.61877 2.23236C6.55403 2.30541 6.50556 2.39137 6.4765 2.48456C6.44743 2.57774 6.43846 2.67605 6.45019 2.77295V3.77295H5.50018C5.16793 3.77687 4.83969 3.84615 4.53424 3.97693C4.22878 4.1077 3.95212 4.29737 3.71997 4.5351C3.48782 4.77282 3.30477 5.05395 3.18127 5.36243C3.05777 5.6709 2.99622 6.0007 3.00018 6.33295V19.5429C2.99622 19.8752 3.05777 20.205 3.18127 20.5134C3.30477 20.8219 3.48782 21.103 3.71997 21.3408C3.95212 21.5785 4.22878 21.7682 4.53424 21.8989C4.83969 22.0297 5.16793 22.099 5.50018 22.1029H17.5002C17.8324 22.099 18.1607 22.0297 18.4661 21.8989C18.7716 21.7682 19.0483 21.5785 19.2805 21.3408C19.5126 21.103 19.6957 20.8219 19.8191 20.5134C19.9426 20.205 20.0041 19.8752 20.0002 19.5429V6.33295C20.0084 5.67041 19.7563 5.03106 19.2982 4.55237C18.8401 4.07368 18.2124 3.79385 17.5502 3.77295ZM18.6902 19.5429C18.6915 19.6939 18.6631 19.8437 18.6065 19.9838C18.5499 20.1238 18.4663 20.2514 18.3605 20.3591C18.2546 20.4668 18.1285 20.5526 17.9895 20.6116C17.8505 20.6706 17.7012 20.7016 17.5502 20.7029H5.55017C5.24691 20.6977 4.95804 20.5728 4.7464 20.3555C4.53475 20.1383 4.41748 19.8462 4.42016 19.5429V6.33295C4.41748 6.02965 4.53475 5.73758 4.7464 5.52032C4.95804 5.30307 5.24691 5.17818 5.55017 5.17291H6.50018V6.17291C6.48845 6.26982 6.49742 6.36812 6.52649 6.4613C6.55555 6.55449 6.60408 6.64045 6.66882 6.7135C6.73356 6.78655 6.81302 6.84502 6.90204 6.88507C6.99105 6.92512 7.08757 6.94586 7.18518 6.94586C7.28279 6.94586 7.3793 6.92512 7.46832 6.88507C7.55733 6.84502 7.63685 6.78655 7.7016 6.7135C7.76634 6.64045 7.8148 6.55449 7.84387 6.4613C7.87293 6.36812 7.8819 6.26982 7.87017 6.17291V5.17291H10.8702V6.17291C10.8702 6.35326 10.9418 6.52622 11.0693 6.65375C11.1969 6.78127 11.3698 6.85291 11.5502 6.85291C11.7305 6.85291 11.9035 6.78127 12.031 6.65375C12.1585 6.52622 12.2302 6.35326 12.2302 6.17291V5.17291H15.2302V6.17291C15.2184 6.26982 15.2274 6.36812 15.2565 6.4613C15.2855 6.55449 15.3341 6.64045 15.3988 6.7135C15.4635 6.78655 15.5431 6.84502 15.6321 6.88507C15.7211 6.92512 15.8175 6.94586 15.9152 6.94586C16.0128 6.94586 16.1093 6.92512 16.1983 6.88507C16.2873 6.84502 16.3668 6.78655 16.4316 6.7135C16.4963 6.64045 16.5448 6.55449 16.5739 6.4613C16.603 6.36812 16.6119 6.26982 16.6002 6.17291V5.17291H17.6002C17.7512 5.17422 17.9005 5.20528 18.0395 5.26428C18.1786 5.32329 18.3046 5.40913 18.4105 5.51685C18.5163 5.62456 18.5999 5.75206 18.6565 5.89209C18.7131 6.03212 18.7415 6.18193 18.7402 6.33295L18.6902 19.5429Z" fill="black"/>
<path d="M15.9202 9.10303H7.19025C7.0046 9.10303 6.82653 9.17683 6.69525 9.30811C6.56398 9.43938 6.49023 9.61739 6.49023 9.80304C6.49023 9.98869 6.56398 10.1668 6.69525 10.298C6.82653 10.4293 7.0046 10.5031 7.19025 10.5031H15.9202C16.1059 10.5031 16.2839 10.4293 16.4152 10.298C16.5465 10.1668 16.6202 9.98869 16.6202 9.80304C16.6202 9.61739 16.5465 9.43938 16.4152 9.30811C16.2839 9.17683 16.1059 9.10303 15.9202 9.10303Z" fill="black"/>
<path d="M15.9207 12.4531H7.19067C7.02071 12.4735 6.86415 12.5555 6.75055 12.6836C6.63695 12.8117 6.57422 12.9769 6.57422 13.1481C6.57422 13.3193 6.63695 13.4845 6.75055 13.6126C6.86415 13.7407 7.02071 13.8227 7.19067 13.8431H15.9207C16.0906 13.8227 16.2472 13.7407 16.3608 13.6126C16.4744 13.4845 16.5372 13.3193 16.5372 13.1481C16.5372 12.9769 16.4744 12.8117 16.3608 12.6836C16.2472 12.5555 16.0906 12.4735 15.9207 12.4531Z" fill="black"/>
<path d="M12.6407 15.8032H7.19067C7.02071 15.8236 6.86415 15.9057 6.75055 16.0338C6.63695 16.1618 6.57422 16.327 6.57422 16.4982C6.57422 16.6694 6.63695 16.8347 6.75055 16.9628C6.86415 17.0908 7.02071 17.1728 7.19067 17.1932H12.6407C12.8107 17.1728 12.9672 17.0908 13.0808 16.9628C13.1944 16.8347 13.2571 16.6694 13.2571 16.4982C13.2571 16.327 13.1944 16.1618 13.0808 16.0338C12.9672 15.9057 12.8107 15.8236 12.6407 15.8032Z" fill="black"/>
</svg>
