<svg width="24" height="24" viewBox="0 0 24 24" fill="none" xmlns="http://www.w3.org/2000/svg">
<path d="M12 22C10.0222 22 8.08877 21.4135 6.44428 20.3147C4.79979 19.2158 3.51811 17.6541 2.76123 15.8268C2.00436 13.9995 1.80629 11.9889 2.19214 10.0491C2.578 8.10928 3.53043 6.32744 4.92896 4.92891C6.32748 3.53039 8.10927 2.57801 10.0491 2.19216C11.9889 1.80631 13.9996 2.00431 15.8268 2.76119C17.6541 3.51807 19.2159 4.7998 20.3147 6.44429C21.4135 8.08879 22 10.0221 22 12C22 14.6521 20.9464 17.1957 19.071 19.0711C17.1957 20.9464 14.6522 22 12 22ZM12 3.39998C10.2995 3.40196 8.6378 3.90803 7.22486 4.85421C5.81191 5.80039 4.71115 7.14422 4.06177 8.71584C3.41239 10.2875 3.24352 12.0163 3.57648 13.6839C3.90944 15.3514 4.72931 16.8829 5.93244 18.0846C7.13557 19.2863 8.66792 20.1044 10.3359 20.4354C12.0038 20.7665 13.7325 20.5956 15.3034 19.9444C16.8743 19.2932 18.2168 18.1909 19.1613 16.7769C20.1059 15.3628 20.61 13.7005 20.61 12C20.6073 9.71818 19.6991 7.53076 18.0847 5.91823C16.4703 4.30571 14.2818 3.39998 12 3.39998Z" fill="black"/>
<path d="M11.9998 9.50994C12.6405 9.50994 13.1598 8.99059 13.1598 8.34994C13.1598 7.70929 12.6405 7.18994 11.9998 7.18994C11.3592 7.18994 10.8398 7.70929 10.8398 8.34994C10.8398 8.99059 11.3592 9.50994 11.9998 9.50994Z" fill="black"/>
<path d="M11.9997 17.5101C11.8158 17.5074 11.6403 17.4326 11.5112 17.3016C11.382 17.1706 11.3097 16.9941 11.3097 16.8101V11.2801C11.2979 11.1818 11.3071 11.0822 11.3366 10.9877C11.3661 10.8933 11.4153 10.8061 11.481 10.7321C11.5467 10.658 11.6273 10.5988 11.7176 10.5582C11.8078 10.5176 11.9057 10.4966 12.0047 10.4966C12.1037 10.4966 12.2015 10.5176 12.2918 10.5582C12.3821 10.5988 12.4627 10.658 12.5284 10.7321C12.594 10.8061 12.6432 10.8933 12.6728 10.9877C12.7023 11.0822 12.7115 11.1818 12.6997 11.2801V16.8301C12.6945 17.0122 12.6184 17.1852 12.4877 17.3122C12.357 17.4392 12.1819 17.5101 11.9997 17.5101Z" fill="black"/>
</svg>
