<svg width="24" height="24" viewBox="0 0 24 24" fill="none" xmlns="http://www.w3.org/2000/svg">
<path d="M12 2C10.0222 2 8.08879 2.58649 6.4443 3.6853C4.79981 4.78412 3.51809 6.34596 2.76121 8.17322C2.00434 10.0005 1.8063 12.0111 2.19215 13.9509C2.578 15.8907 3.53041 17.6726 4.92894 19.0711C6.32746 20.4696 8.10929 21.422 10.0491 21.8079C11.9889 22.1937 13.9996 21.9957 15.8268 21.2388C17.6541 20.482 19.2159 19.2002 20.3147 17.5557C21.4135 15.9112 22 13.9778 22 12C22 9.34784 20.9465 6.80432 19.0711 4.92896C17.1957 3.05359 14.6522 2 12 2ZM12 20.6C10.2963 20.602 8.63022 20.0985 7.21278 19.1531C5.79534 18.2078 4.69023 16.8632 4.03732 15.2896C3.38441 13.7159 3.21306 11.9839 3.54496 10.3127C3.87686 8.64164 4.69709 7.10659 5.90182 5.90186C7.10655 4.69712 8.64163 3.87688 10.3127 3.54498C11.9838 3.21308 13.7159 3.38444 15.2895 4.03735C16.8632 4.69026 18.2078 5.79539 19.1531 7.21283C20.0984 8.63027 20.602 10.2963 20.6 12C20.5974 14.28 19.6904 16.466 18.0782 18.0782C16.466 19.6905 14.2801 20.5974 12 20.6Z" fill="black"/>
<path d="M16.7001 8.00994L10.6501 15.0099L7.30013 11.15C7.17814 11.0094 7.0053 10.923 6.81964 10.9099C6.63397 10.8968 6.45071 10.9579 6.31014 11.0799C6.16958 11.2019 6.08324 11.3748 6.07011 11.5605C6.05698 11.7461 6.11814 11.9294 6.24014 12.0699L10.1301 16.54C10.1946 16.6149 10.2744 16.6751 10.3641 16.7165C10.4538 16.7579 10.5513 16.7795 10.6501 16.78C10.7496 16.7776 10.8474 16.7542 10.9371 16.711C11.0268 16.6679 11.1062 16.6062 11.1701 16.53L17.7501 8.88994C17.8569 8.74781 17.9056 8.57039 17.8863 8.39367C17.8671 8.21695 17.7813 8.0542 17.6464 7.9384C17.5116 7.82261 17.3377 7.76247 17.1601 7.77019C16.9825 7.77791 16.8145 7.85291 16.6901 7.97997L16.7001 8.00994Z" fill="black"/>
</svg>
