<svg width="24" height="24" viewBox="0 0 24 24" fill="none" xmlns="http://www.w3.org/2000/svg">
<g clip-path="url(#clip0_960_5136)">
<path d="M22 9.00001C21.9922 8.42743 21.8716 7.86199 21.6453 7.336C21.4189 6.81002 21.0911 6.33382 20.6807 5.93452C20.2702 5.53521 19.7851 5.22067 19.2531 5.00886C18.7211 4.79704 18.1526 4.69208 17.58 4.70002C16.5291 4.69851 15.5118 5.07066 14.71 5.75001H12.46C12.3804 5.75011 12.3025 5.72761 12.2352 5.68513C12.1679 5.64264 12.1141 5.58191 12.08 5.51002L11.88 5.07001C11.7288 4.74765 11.4882 4.4755 11.1869 4.28583C10.8855 4.09616 10.536 3.99693 10.18 4.00001H3.85999C3.61966 3.99603 3.3809 4.03944 3.15735 4.12775C2.9338 4.21607 2.72985 4.34756 2.55713 4.51472C2.38441 4.68187 2.24629 4.8814 2.1507 5.10193C2.0551 5.32247 2.00391 5.55966 2 5.79999V19.19C2.0026 19.4312 2.05284 19.6695 2.14786 19.8912C2.24287 20.1129 2.38076 20.3135 2.55362 20.4818C2.72647 20.65 2.9309 20.7823 3.15509 20.8713C3.37928 20.9602 3.61883 21.004 3.85999 21H18.51C18.7511 21.004 18.9907 20.9602 19.2149 20.8713C19.4391 20.7823 19.6435 20.65 19.8163 20.4818C19.9892 20.3135 20.1271 20.1129 20.2221 19.8912C20.3171 19.6695 20.3674 19.4312 20.37 19.19V12.31C20.8746 11.9177 21.2835 11.416 21.5659 10.8426C21.8483 10.2692 21.9967 9.63915 22 9.00001ZM17.13 6.85004C17.146 6.74348 17.1997 6.64618 17.2814 6.57587C17.3631 6.50557 17.4672 6.46692 17.575 6.46692C17.6827 6.46692 17.7869 6.50557 17.8686 6.57587C17.9503 6.64618 18.004 6.74348 18.02 6.85004V8.57001H19.79C19.904 8.57001 20.0134 8.61535 20.0941 8.69599C20.1747 8.77663 20.22 8.88596 20.22 9.00001C20.22 9.11405 20.1747 9.22344 20.0941 9.30408C20.0134 9.38472 19.904 9.43 19.79 9.43H18.02V11.15C18.004 11.2566 17.9503 11.3538 17.8686 11.4241C17.7869 11.4944 17.6827 11.5331 17.575 11.5331C17.4672 11.5331 17.3631 11.4944 17.2814 11.4241C17.1997 11.3538 17.146 11.2566 17.13 11.15V9.43H15.37C15.256 9.43 15.1466 9.38472 15.0659 9.30408C14.9853 9.22344 14.94 9.11405 14.94 9.00001C14.94 8.88596 14.9853 8.77663 15.0659 8.69599C15.1466 8.61535 15.256 8.57001 15.37 8.57001H17.13V6.85004ZM3.85999 5.40003H10.18C10.2601 5.39737 10.3391 5.41882 10.4069 5.46161C10.4746 5.50441 10.528 5.56655 10.56 5.64002L10.76 6.08002C10.9097 6.40425 11.1497 6.67849 11.4512 6.87C11.7526 7.06152 12.1028 7.16224 12.46 7.16004H13.6C13.3084 7.72984 13.1543 8.35995 13.15 9.00001C13.15 9.11001 13.15 9.22002 13.15 9.33002H3.45999V5.79999C3.45999 5.74746 3.47035 5.69545 3.49045 5.64692C3.51055 5.59839 3.54 5.5543 3.57715 5.51716C3.61429 5.48001 3.65838 5.45059 3.70691 5.43049C3.75544 5.41038 3.80746 5.40003 3.85999 5.40003ZM18.92 19.19C18.92 19.2434 18.9093 19.2963 18.8886 19.3455C18.8679 19.3947 18.8375 19.4392 18.7993 19.4764C18.7611 19.5137 18.7158 19.543 18.6661 19.5625C18.6164 19.582 18.5633 19.5914 18.51 19.59H3.85999C3.80662 19.5914 3.75355 19.582 3.70386 19.5625C3.65417 19.543 3.60886 19.5137 3.57065 19.4764C3.53244 19.4392 3.50208 19.3947 3.48135 19.3455C3.46063 19.2963 3.44997 19.2434 3.44998 19.19V10.73H13.54C13.8915 11.4958 14.4551 12.1448 15.164 12.6002C15.8729 13.0557 16.6974 13.2985 17.54 13.3C17.9961 13.2961 18.4487 13.2184 18.88 13.07L18.92 19.19Z" fill="black"/>
</g>
<defs>
<clipPath id="clip0_960_5136">
<rect width="20" height="17" fill="white" transform="translate(2 4)"/>
</clipPath>
</defs>
</svg>
