<svg width="24" height="24" viewBox="0 0 24 24" fill="none" xmlns="http://www.w3.org/2000/svg">
<path d="M15.815 14.8879L12.9145 11.9874L15.815 9.09311C15.9336 8.97146 16 8.80828 16 8.63838C16 8.46847 15.9336 8.30526 15.815 8.18361C15.7574 8.12024 15.6872 8.06961 15.6089 8.03497C15.5306 8.00032 15.4459 7.98242 15.3602 7.98242C15.2746 7.98242 15.1899 8.00032 15.1116 8.03497C15.0333 8.06961 14.9631 8.12024 14.9055 8.18361L12.005 11.0841L9.11069 8.18361C8.99008 8.063 8.82652 7.99525 8.65596 7.99525C8.4854 7.99525 8.32179 8.063 8.20119 8.18361C8.08058 8.30421 8.01283 8.46782 8.01283 8.63838C8.01283 8.80894 8.08058 8.97251 8.20119 9.09311L11.0955 11.9874L8.20119 14.8879C8.13782 14.9455 8.08719 15.0157 8.05255 15.094C8.0179 15.1723 8 15.257 8 15.3427C8 15.4283 8.0179 15.513 8.05255 15.5913C8.08719 15.6696 8.13782 15.7398 8.20119 15.7974C8.32428 15.9132 8.48695 15.9777 8.65596 15.9777C8.82496 15.9777 8.98759 15.9132 9.11069 15.7974L12.005 12.8969L14.9055 15.7974C15.0272 15.916 15.1903 15.9824 15.3602 15.9824C15.5302 15.9824 15.6933 15.916 15.815 15.7974C15.9336 15.6758 16 15.5126 16 15.3427C16 15.1728 15.9336 15.0096 15.815 14.8879Z" fill="white"/>
</svg>
