<svg width="103" height="48" viewBox="0 0 103 48" fill="none" xmlns="http://www.w3.org/2000/svg">
<path d="M50.7144 22.0251C50.4215 21.7322 50.4215 21.2574 50.7144 20.9645C51.0073 20.6716 51.4822 20.6716 51.775 20.9645L54.25 23.4394L56.7249 20.9645C57.0177 20.6716 57.4926 20.6716 57.7855 20.9645C58.0784 21.2573 58.0784 21.7322 57.7855 22.0251L55.3105 24.5L57.7855 26.9749C58.0784 27.2678 58.0784 27.7427 57.7855 28.0355C57.4926 28.3284 57.0177 28.3284 56.7249 28.0355L54.25 25.5607L51.775 28.0355C51.4822 28.3284 51.0073 28.3284 50.7145 28.0355C50.4215 27.7426 50.4215 27.2678 50.7145 26.9749L53.1893 24.5001L50.7144 22.0251Z" fill="black"/>
<path fill-rule="evenodd" clip-rule="evenodd" d="M47.6213 16.8787L40 24.5L47.6213 32.1213C48.184 32.684 48.947 33 49.7427 33H60C61.6569 33 63 31.6569 63 30V19C63 17.3431 61.6569 16 60 16H49.7427C48.947 16 48.184 16.3161 47.6213 16.8787ZM60 31.7H49.7427C49.2917 31.7 48.8594 31.5209 48.5405 31.2021L41.8385 24.5L48.5405 17.7979C48.8594 17.4791 49.2917 17.3 49.7427 17.3H60C60.9388 17.3 61.7 18.0611 61.7 19V30C61.7 30.9389 60.9388 31.7 60 31.7Z" fill="black"/>
</svg>
