<svg width="24" height="24" viewBox="0 0 24 24" fill="none" xmlns="http://www.w3.org/2000/svg">
<path d="M21.0303 5.54978C20.5788 5.19826 20.0225 5.00816 19.4503 5.00981H4.57025C3.99778 5.00661 3.441 5.19687 2.99023 5.54978C2.68552 5.77441 2.43675 6.06632 2.26331 6.40281C2.08986 6.7393 1.99641 7.11128 1.99023 7.48979V17.4898C2.00077 18.1591 2.2761 18.7969 2.75592 19.2636C3.23574 19.7303 3.88093 19.9878 4.55023 19.9798H19.4302C20.0995 19.9878 20.7447 19.7303 21.2245 19.2636C21.7044 18.7969 21.9797 18.1591 21.9902 17.4898V7.48979C21.9902 7.11436 21.9036 6.74399 21.7371 6.40751C21.5706 6.07103 21.3288 5.7775 21.0303 5.54978ZM19.2103 6.34977L12.0002 11.6498L4.79022 6.34977H19.2103ZM20.5703 17.5098C20.565 17.8131 20.4402 18.1019 20.2229 18.3136C20.0056 18.5252 19.7136 18.6425 19.4103 18.6398H4.57025C4.41923 18.6425 4.26914 18.6153 4.1286 18.56C3.98806 18.5046 3.85981 18.4221 3.75116 18.3172C3.64251 18.2122 3.55563 18.0869 3.49542 17.9484C3.43521 17.8099 3.40287 17.6608 3.40027 17.5098V7.50981C3.40368 7.37507 3.43426 7.2424 3.49023 7.11979L11.5903 13.0698C11.7127 13.1571 11.8599 13.2027 12.0103 13.1998C12.1604 13.2013 12.3072 13.1559 12.4302 13.0698L20.5303 7.11979C20.5828 7.24311 20.61 7.37576 20.6102 7.50981L20.5703 17.5098Z" fill="black"/>
</svg>
