<svg width="24" height="24" viewBox="0 0 24 24" fill="none" xmlns="http://www.w3.org/2000/svg">
<path d="M6 2H3C2.44772 2 2 2.44772 2 3V6.07C2 6.62228 2.44772 7.07 3 7.07H6C6.55228 7.07 7 6.62228 7 6.07V3C7 2.44772 6.55228 2 6 2Z" fill="black"/>
<path d="M6 8.97021H3C2.44772 8.97021 2 9.41793 2 9.97021V13.0402C2 13.5925 2.44772 14.0402 3 14.0402H6C6.55228 14.0402 7 13.5925 7 13.0402V9.97021C7 9.41793 6.55228 8.97021 6 8.97021Z" fill="black"/>
<path d="M6 15.9302H3C2.44772 15.9302 2 16.3779 2 16.9302V20.0002C2 20.5525 2.44772 21.0002 3 21.0002H6C6.55228 21.0002 7 20.5525 7 20.0002V16.9302C7 16.3779 6.55228 15.9302 6 15.9302Z" fill="black"/>
<path d="M21.25 3.77979H10C9.58579 3.77979 9.25 4.2275 9.25 4.77979C9.25 5.33207 9.58579 5.77979 10 5.77979H21.25C21.6642 5.77979 22 5.33207 22 4.77979C22 4.2275 21.6642 3.77979 21.25 3.77979Z" fill="black"/>
<path d="M21.25 10.75H10C9.58579 10.75 9.25 11.1977 9.25 11.75C9.25 12.3023 9.58579 12.75 10 12.75H21.25C21.6642 12.75 22 12.3023 22 11.75C22 11.1977 21.6642 10.75 21.25 10.75Z" fill="black"/>
<path d="M21.25 17.7202H10C9.58579 17.7202 9.25 18.1679 9.25 18.7202C9.25 19.2725 9.58579 19.7202 10 19.7202H21.25C21.6642 19.7202 22 19.2725 22 18.7202C22 18.1679 21.6642 17.7202 21.25 17.7202Z" fill="black"/>
</svg>
