<svg width="24" height="24" viewBox="0 0 24 24" fill="none" xmlns="http://www.w3.org/2000/svg">
<path d="M21.9395 10.1799C21.8578 9.94248 21.708 9.7344 21.5088 9.58148C21.3097 9.42857 21.07 9.33758 20.8195 9.31989L15.3795 8.93988L13.1795 3.7699C13.0804 3.54054 12.9164 3.34518 12.7076 3.20795C12.4988 3.07071 12.2544 2.99756 12.0045 2.99756C11.7547 2.99756 11.5103 3.07071 11.3015 3.20795C11.0927 3.34518 10.9286 3.54054 10.8295 3.7699L8.61953 8.93988L3.18953 9.31989C2.93831 9.33498 2.69735 9.42497 2.49773 9.57825C2.29811 9.73153 2.14895 9.94106 2.06951 10.1799C1.98662 10.4158 1.97765 10.6715 2.04375 10.9127C2.10986 11.1539 2.24793 11.3691 2.43953 11.5298L6.34951 14.8899L5.29952 20.4899C5.25282 20.7327 5.2792 20.9839 5.37533 21.2118C5.47145 21.4396 5.633 21.6339 5.83953 21.7699C6.04721 21.9071 6.29061 21.9802 6.53951 21.9802C6.78841 21.9802 7.03184 21.9071 7.23952 21.7699L12.0095 18.7098L16.7895 21.7699C16.9966 21.8991 17.2354 21.9683 17.4795 21.9698C17.6653 21.9683 17.8485 21.9263 18.0164 21.8467C18.1844 21.7672 18.3329 21.6521 18.4519 21.5093C18.5708 21.3666 18.6573 21.1997 18.7052 21.0202C18.7532 20.8407 18.7615 20.6529 18.7295 20.4698L17.6695 14.8599L21.5695 11.4999C21.7531 11.3398 21.8859 11.1296 21.9516 10.8951C22.0173 10.6606 22.0132 10.412 21.9395 10.1799Z" fill="#FFDB20"/>
</svg>
