<svg width="24" height="24" viewBox="0 0 24 24" fill="none" xmlns="http://www.w3.org/2000/svg">
<path d="M20.08 7.13011H17.41C17.3151 7.12911 17.2229 7.09882 17.1459 7.04332C17.0689 6.98782 17.011 6.90983 16.98 6.82012V6.7401L16.24 5.2401C16.1108 4.87885 15.8735 4.56611 15.5605 4.34429C15.2474 4.12246 14.8737 4.0023 14.49 4.00011H9.49002C9.11812 3.99603 8.75392 4.10599 8.44641 4.31517C8.13889 4.52436 7.90285 4.82276 7.77005 5.17015L6.96002 6.82012C6.92908 6.90983 6.87117 6.98782 6.79419 7.04332C6.7172 7.09882 6.62492 7.12911 6.53003 7.13011H3.86004C3.36582 7.13276 2.89275 7.33098 2.54422 7.68138C2.19568 8.03179 2.00002 8.50588 2.00003 9.00011V19.1201C1.99871 19.3657 2.04578 19.6092 2.13855 19.8365C2.23131 20.0639 2.36796 20.2708 2.54068 20.4454C2.71339 20.6199 2.91879 20.7588 3.14517 20.854C3.37155 20.9492 3.61447 20.9988 3.86004 21.0001H20.08C20.5769 20.9975 21.0525 20.7983 21.4029 20.446C21.7533 20.0937 21.95 19.617 21.95 19.1201V9.00011C21.95 8.50415 21.753 8.02854 21.4023 7.67784C21.0516 7.32715 20.576 7.13011 20.08 7.13011ZM20.55 19.1301C20.55 19.2548 20.5005 19.3743 20.4124 19.4625C20.3242 19.5506 20.2047 19.6001 20.08 19.6001H3.81002C3.68537 19.6001 3.56583 19.5506 3.47769 19.4625C3.38955 19.3743 3.34002 19.2548 3.34002 19.1301V9.00011C3.34258 8.87626 3.39293 8.75824 3.48053 8.67064C3.56812 8.58305 3.68617 8.53269 3.81002 8.53014H6.48004C6.85045 8.53359 7.21318 8.42452 7.52029 8.21739C7.8274 8.01027 8.06443 7.71482 8.20004 7.3701L9.00003 5.72014C9.03017 5.62795 9.08929 5.54798 9.16858 5.49211C9.24786 5.43625 9.34308 5.4075 9.44003 5.41014H14.44C14.5478 5.41401 14.6514 5.45331 14.7345 5.52202C14.8177 5.59073 14.8759 5.68501 14.9 5.79015L15.66 7.33013C15.7946 7.68073 16.0316 7.98267 16.3401 8.1967C16.6487 8.41074 17.0145 8.52695 17.39 8.53014H20.06C20.1839 8.53269 20.302 8.58305 20.3896 8.67064C20.4771 8.75824 20.5275 8.87626 20.53 9.00011L20.55 19.1301Z" fill="black"/>
<path d="M11.9495 8.97977C11.0653 8.96986 10.1981 9.22294 9.45813 9.70695C8.71814 10.191 8.13874 10.884 7.79349 11.698C7.44825 12.5121 7.35274 13.4104 7.51914 14.2788C7.68554 15.1472 8.10633 15.9466 8.72803 16.5754C9.34974 17.2041 10.1443 17.6339 11.0108 17.81C11.8773 17.9862 12.7766 17.9008 13.5945 17.5648C14.4124 17.2287 15.1119 16.6572 15.6042 15.9227C16.0965 15.1882 16.3594 14.324 16.3595 13.4397C16.3648 12.2639 15.9034 11.134 15.0767 10.2978C14.2499 9.4617 13.1253 8.98771 11.9495 8.97977ZM11.9495 16.4897C11.3421 16.4996 10.7456 16.3279 10.2364 15.9966C9.72726 15.6653 9.32864 15.1895 9.09162 14.6302C8.8546 14.0709 8.78999 13.4535 8.90607 12.8573C9.02216 12.261 9.31366 11.713 9.7432 11.2835C10.1727 10.8539 10.7207 10.5625 11.317 10.4464C11.9133 10.3303 12.5306 10.3949 13.0899 10.6319C13.6492 10.8689 14.125 11.2675 14.4563 11.7767C14.7876 12.2859 14.9593 12.8823 14.9495 13.4897C14.9495 14.2854 14.6334 15.0484 14.0708 15.6111C13.5082 16.1737 12.7451 16.4897 11.9495 16.4897Z" fill="black"/>
</svg>
